<?xml version="1.0" encoding="UTF-8"?>
<!DOCTYPE svg PUBLIC "-//W3C//DTD SVG 1.1//EN" "http://www.w3.org/Graphics/SVG/1.1/DTD/svg11.dtd">
<!-- Creator: CorelDRAW -->
<svg xmlns="http://www.w3.org/2000/svg" xml:space="preserve" width="120mm" height="120mm" version="1.1" style="shape-rendering:geometricPrecision; text-rendering:geometricPrecision; image-rendering:optimizeQuality; fill-rule:evenodd; clip-rule:evenodd"
viewBox="0 0 1929.23 1929.23"
 xmlns:xlink="http://www.w3.org/1999/xlink"
 xmlns:xodm="http://www.corel.com/coreldraw/odm/2003">
 <defs>
  <style type="text/css">
   <![CDATA[
    .str1 {stroke:#C8E9C8;stroke-width:24.12;stroke-miterlimit:22.9256}
    .str0 {stroke:black;stroke-width:3.22;stroke-miterlimit:22.9256}
    .fil1 {fill:none}
    .fil3 {fill:black}
    .fil4 {fill:#C8E9C8}
    .fil2 {fill:lightgrey}
    .fil0 {fill:#F9DBBE}
    .fil5 {fill:lightgrey;fill-rule:nonzero}
   ]]>
  </style>
 </defs>
 <g id="Layer_x0020_1">
  <metadata id="CorelCorpID_0Corel-Layer"/>
  <rect class="fil0" width="1929.23" height="1929.23"/>
  <rect class="fil1" width="1929.23" height="1929.23"/>
  <circle class="fil2" cx="964.62" cy="964.62" r="823.94"/>
  <circle class="fil3 str0" cx="964.62" cy="964.62" r="803.85"/>
  <circle class="fil3 str0" cx="964.62" cy="964.62" r="803.85"/>
  <circle class="fil1 str1" cx="964.62" cy="964.62" r="836"/>
  <circle class="fil4" cx="577.23" cy="775.38" r="70.28"/>
  <circle class="fil4" cx="1349.05" cy="1095.52" r="70.28"/>
  <path class="fil2" d="M762.77 882.99c41.14,-130.5 -4.45,-219 -141.01,-263.46 105.69,-25.84 204.89,1.09 256.04,44.53 55.29,51.78 64.13,115.95 35.25,190.17 -26.47,62.25 -169.33,179.14 -292.22,286.65 66.79,0.31 133.58,0.62 200.38,0.93 53.05,0.37 81.96,-26.74 95.55,-82.56 15.46,1.24 30.92,2.47 46.38,3.71 -15.46,66.17 -30.92,132.35 -46.38,198.52 -139.46,-0.62 -278.92,-1.24 -418.38,-1.86 0,-28.76 0,-57.52 0,-86.27 101.4,-100.01 237.49,-208.41 264.39,-290.36z"/>
  <path class="fil2" d="M1163.52 987.91c-41.14,130.5 4.45,219 141.01,263.46 -105.69,25.84 -204.89,-1.09 -256.04,-44.53 -55.3,-51.78 -64.13,-115.95 -35.25,-190.17 26.47,-62.25 169.33,-179.14 292.22,-286.65 -66.79,-0.31 -133.58,-0.62 -200.38,-0.93 -53.05,-0.37 -81.96,26.74 -95.55,82.56 -15.46,-1.24 -30.92,-2.47 -46.38,-3.71 15.46,-66.17 30.92,-132.35 46.38,-198.52 139.46,0.62 278.92,1.24 418.38,1.86 0,28.76 0,57.52 0,86.27 -101.4,100 -237.49,208.41 -264.39,290.36z"/>
  <path class="fil5" d="M498.38 1393.22l0 0.81c0,12.5 3.87,22.14 11.59,28.88 7.74,6.91 18.86,10.36 33.34,10.36 12.73,0 22.78,-3.15 30.19,-9.44 7.41,-6.29 11.11,-14.76 11.11,-25.4 0,-9.67 -3.04,-17.21 -9.13,-22.64 -5.79,-5.1 -15.32,-9.27 -28.6,-12.53l-14.04 -3.43c-7.19,-1.84 -12.37,-4.35 -15.51,-7.49 -3.15,-3.26 -4.73,-7.66 -4.73,-13.2 0,-7.18 2.34,-12.73 7.02,-16.63 4.79,-3.93 11.64,-5.88 20.55,-5.88 9.25,0 16.43,2.28 21.56,6.85 5.21,4.57 7.88,11.14 7.99,19.75l11.42 0c-0.22,-11.53 -3.87,-20.5 -10.95,-26.93 -7.07,-6.46 -16.9,-9.69 -29.52,-9.69 -12.2,0 -21.86,2.98 -29.05,8.97 -6.93,5.88 -10.39,13.65 -10.39,23.31 0,9.25 2.68,16.38 7.99,21.36 4.79,4.34 13.06,8.05 24.84,11.09l11.25 2.78c10.47,2.59 17.6,5.54 21.42,8.77 4.46,3.7 6.68,9.27 6.68,16.77 0,7.16 -2.67,12.84 -8.02,17.07 -5.35,4.35 -12.7,6.52 -22.09,6.52 -10.7,0 -18.99,-2.67 -24.9,-7.99 -5.77,-5.24 -8.66,-12.56 -8.66,-22.03l-11.36 0zm192.69 36.71l10.86 0 0 -42.42 20.05 -20.58 48.13 63 13.7 0 -54.48 -70.46 48.77 -50.02 -14.18 0 -62 63.64 0 -63.64 -10.86 0 0 120.49zm192.29 0l10.86 0 0 -120.49 -10.86 0 0 120.49zm122.53 0l72.55 0 0 -10.03 -61.69 0 0 -110.46 -10.86 0 0 120.49zm171.35 0l72.55 0 0 -10.03 -61.69 0 0 -110.46 -10.86 0 0 120.49zm166.17 -36.71l0 0.81c0,12.5 3.87,22.14 11.59,28.88 7.74,6.91 18.86,10.36 33.34,10.36 12.73,0 22.78,-3.15 30.19,-9.44 7.41,-6.29 11.11,-14.76 11.11,-25.4 0,-9.67 -3.04,-17.21 -9.13,-22.64 -5.79,-5.1 -15.32,-9.27 -28.6,-12.53l-14.04 -3.43c-7.19,-1.84 -12.37,-4.35 -15.51,-7.49 -3.15,-3.26 -4.73,-7.66 -4.73,-13.2 0,-7.18 2.34,-12.73 7.02,-16.63 4.79,-3.93 11.64,-5.88 20.55,-5.88 9.25,0 16.43,2.28 21.56,6.85 5.21,4.57 7.88,11.14 7.99,19.75l11.42 0c-0.22,-11.53 -3.87,-20.5 -10.95,-26.93 -7.07,-6.46 -16.9,-9.69 -29.52,-9.69 -12.2,0 -21.86,2.98 -29.05,8.97 -6.93,5.88 -10.39,13.65 -10.39,23.31 0,9.25 2.68,16.38 7.99,21.36 4.79,4.34 13.06,8.05 24.84,11.09l11.25 2.78c10.47,2.59 17.6,5.54 21.42,8.77 4.46,3.7 6.68,9.27 6.68,16.77 0,7.16 -2.67,12.84 -8.02,17.07 -5.35,4.35 -12.7,6.52 -22.09,6.52 -10.7,0 -18.99,-2.67 -24.9,-7.99 -5.77,-5.24 -8.66,-12.56 -8.66,-22.03l-11.36 0z"/>
  <path class="fil5" d="M498.38 562.5l5.86 0 0 -28.04 13.82 0c8.04,0 14.09,-1.56 18.14,-4.69 4,-3.07 6,-7.69 6,-13.89 0,-6.13 -1.79,-10.73 -5.36,-13.79 -3.52,-3.07 -8.84,-4.6 -15.93,-4.6l-22.53 0 0 65.01zm5.86 -33.45l0 -26.15 16.48 0c5.23,0 9.12,1.04 11.65,3.09 2.52,2.06 3.79,5.29 3.79,9.71 0,4.78 -1.5,8.22 -4.49,10.34 -2.82,2 -7.32,3 -13.49,3l-13.93 0zm142.29 33.45l5.86 0 0 -28.94 18.96 0c5.23,0 8.67,0.87 10.32,2.63 1.58,1.71 2.59,5.39 2.99,11.07l0.71 8.54c0.11,1.58 0.29,2.9 0.51,3.95 0.24,1.11 0.53,2.03 0.89,2.75l6.58 0 0 -0.9c-0.6,-0.53 -1.04,-1.26 -1.32,-2.21 -0.42,-0.99 -0.68,-2.25 -0.8,-3.79l-0.71 -9.78c-0.47,-4.82 -1.08,-8.08 -1.85,-9.8 -1.11,-2.46 -3.23,-4.19 -6.34,-5.2 3.35,-1.23 5.94,-3.2 7.75,-5.91 1.79,-2.77 2.69,-6.15 2.69,-10.14 0,-3.29 -0.71,-6.21 -2.1,-8.73 -1.35,-2.52 -3.29,-4.49 -5.82,-5.91 -2.1,-1.17 -4.63,-1.94 -7.56,-2.3 -2,-0.23 -5.06,-0.35 -9.23,-0.35l-21.55 0 0 65.01zm5.86 -34.35l0 -25.24 16.9 0c3.17,0 5.53,0.09 7.05,0.27 2.18,0.35 4,1.02 5.47,2.03 1.52,0.99 2.69,2.34 3.52,4.06 0.89,1.7 1.32,3.62 1.32,5.74 0,4.7 -1.38,8.08 -4.13,10.14 -2.7,2 -7.02,3 -12.95,3l-17.17 0zm141.62 1.94c0,10.44 2.59,18.77 7.75,24.97 5.11,6.16 11.83,9.24 20.17,9.24 8.63,0 15.52,-3.08 20.69,-9.24 5.27,-6.14 7.92,-14.47 7.92,-24.97 0,-10.55 -2.64,-18.9 -7.92,-25.07 -5.17,-6.04 -12.07,-9.06 -20.69,-9.06 -8.4,0 -15.12,3.02 -20.17,9.06 -5.17,6.22 -7.75,14.58 -7.75,25.07zm5.86 0c0,-8.9 2.09,-15.99 6.27,-21.25 4,-5.04 9.26,-7.56 15.79,-7.56 6.87,0 12.34,2.52 16.4,7.56 4.24,5.15 6.36,12.23 6.36,21.25 0,8.96 -2.12,16.05 -6.36,21.25 -4.06,5.09 -9.53,7.65 -16.4,7.65 -6.6,0 -11.89,-2.55 -15.88,-7.65 -4.12,-5.26 -6.18,-12.35 -6.18,-21.25zm147.3 12.43l0 4.67c0,5.63 1.38,9.89 4.15,12.77 2.81,2.9 6.99,4.34 12.5,4.34 5.69,0 10.1,-1.53 13.21,-4.58 3.11,-3.05 4.67,-7.41 4.67,-13.04l0 -49.18 -5.95 0 0 47.74c0,4.88 -0.89,8.34 -2.66,10.4 -1.76,2.18 -4.79,3.26 -9.09,3.26 -3.73,0 -6.49,-1.02 -8.31,-3.08 -1.77,-2.06 -2.66,-5.11 -2.66,-9.15l0 -4.15 -5.86 0zm141.56 19.99l43.55 0 0 -5.41 -37.69 0 0 -25.24 33.46 0 0 -5.41 -33.46 0 0 -23.53 36.63 0 0 -5.41 -42.49 0 0 65.01zm192.9 -21.31c-0.47,5.52 -2.43,9.84 -5.92,12.95 -3.47,3.17 -8.08,4.75 -13.86,4.75 -6.94,0 -12.41,-2.52 -16.42,-7.56 -4,-5.14 -6,-12.32 -6,-21.5 0,-9.14 1.97,-16.2 5.91,-21.17 3.95,-4.85 9.42,-7.29 16.42,-7.29 5.41,0 9.83,1.35 13.24,4.06 3.41,2.69 5.41,6.42 6,11.18l5.86 0c-0.41,-6.22 -2.86,-11.21 -7.32,-14.97 -4.51,-3.79 -10.44,-5.68 -17.79,-5.68 -8.75,0 -15.64,2.96 -20.69,8.88 -5.17,6.04 -7.75,14.4 -7.75,25.07 0,10.73 2.55,19.14 7.66,25.24 4.99,6.1 11.87,9.15 20.62,9.15 7.63,0 13.72,-2.07 18.24,-6.21 4.52,-4.1 7.05,-9.74 7.57,-16.9l-5.77 0zm123.1 21.31l5.86 0 0 -59.6 20.26 0 0 -5.41 -46.28 0 0 5.41 20.17 0 0 59.6z"/>
 </g>
</svg>
